<svg width="113" height="30" viewBox="0 0 113 30" fill="none" xmlns="http://www.w3.org/2000/svg">
<path d="M24.8679 29.5408H5.69165C4.38402 29.5369 3.13142 29.0157 2.20679 28.091C1.28215 27.1664 0.760548 25.9135 0.756592 24.6059V5.42986C0.760812 4.1224 1.28218 2.86972 2.20679 1.9453C3.13139 1.02088 4.3842 0.499805 5.69165 0.49585H24.8679C26.1753 0.499806 27.4278 1.02091 28.3523 1.94536C29.2767 2.86981 29.798 4.12249 29.802 5.42986V24.6059C29.8029 25.2541 29.6756 25.8961 29.428 26.4951C29.1803 27.0941 28.817 27.6384 28.3586 28.0968C27.9003 28.5551 27.3561 28.9185 26.7571 29.1662C26.158 29.4138 25.5161 29.5408 24.8679 29.5399" fill="#8989A2"/>
<path d="M24.8668 0.47879H15.2789V15.0008H29.8009V5.41278C29.7998 4.10426 29.2794 2.84964 28.3541 1.92438C27.4289 0.999115 26.1744 0.478843 24.8658 0.477783" fill="#A0A0BD"/>
<path d="M15.2789 29.5408H24.8668C26.1744 29.5369 27.4275 29.0157 28.3522 28.091C29.2768 27.1664 29.7979 25.9135 29.8019 24.6058V15.0178H15.2799L15.2789 29.5408Z" fill="#BCBCD8"/>
<path d="M55.267 19.0826C55.32 19.0835 55.372 19.0951 55.4204 19.1168C55.4687 19.1384 55.512 19.1697 55.5478 19.2087L56.2851 20.0137C55.7167 20.6734 55.0096 21.1999 54.2148 21.5557C53.2878 21.9471 52.2876 22.1356 51.2817 22.1086C50.3476 22.1217 49.421 21.9451 48.5571 21.5897C47.7657 21.2599 47.0547 20.7636 46.4721 20.1347C45.8801 19.4836 45.4247 18.7201 45.1337 17.8897C44.8076 16.9649 44.6464 15.9901 44.6577 15.0097C44.6463 14.0262 44.8195 13.0494 45.1679 12.1297C45.4862 11.29 45.973 10.5243 46.5981 9.87966C47.2238 9.24503 47.9748 8.74809 48.8037 8.42066C49.7066 8.0662 50.6701 7.88994 51.6401 7.90165C52.5441 7.87958 53.4429 8.04118 54.2827 8.37665C55.012 8.68614 55.6805 9.12295 56.2568 9.66666L55.6459 10.5297C55.6037 10.5913 55.551 10.6454 55.4907 10.6897C55.4153 10.7364 55.3272 10.7585 55.2387 10.7527C55.1426 10.7489 55.0501 10.7169 54.9721 10.6607C54.8781 10.5987 54.7661 10.5237 54.6381 10.4327C54.5101 10.3417 54.3561 10.2457 54.1811 10.1417C53.9832 10.0271 53.7756 9.92969 53.561 9.85065C53.2899 9.75139 53.0109 9.67513 52.727 9.62266C52.3657 9.55741 51.9989 9.52661 51.6318 9.53066C50.9325 9.52215 50.2385 9.65232 49.5898 9.91366C48.9848 10.1592 48.4392 10.5311 47.9897 11.0047C47.5279 11.5026 47.1733 12.0901 46.9477 12.7307C46.6899 13.4624 46.5632 14.2339 46.5737 15.0097C46.5612 15.7983 46.6878 16.583 46.9477 17.3277C47.1706 17.9629 47.517 18.5477 47.9667 19.0487C48.3908 19.5136 48.9125 19.8792 49.4941 20.1197C50.0964 20.3682 50.7424 20.4937 51.394 20.4887C51.7669 20.4912 52.1393 20.4668 52.5087 20.4157C52.8214 20.3715 53.1287 20.2951 53.4257 20.1877C53.7015 20.087 53.965 19.9551 54.2109 19.7947C54.469 19.6246 54.7136 19.4351 54.9428 19.2277C55.0291 19.1408 55.1448 19.0892 55.267 19.0826Z" fill="#8989A2"/>
<path d="M60.4056 7.6687V21.9527H58.6801V7.6687H60.4056Z" fill="#8989A2"/>
<path d="M67.3408 11.9746C67.8983 11.9702 68.4513 12.072 68.9707 12.2746C69.4564 12.4641 69.8962 12.7549 70.2607 13.1276C70.6367 13.5224 70.926 13.9914 71.1099 14.5046C71.3203 15.1041 71.4217 15.7364 71.4097 16.3716C71.426 16.557 71.3962 16.7436 71.3228 16.9146C71.2842 16.9639 71.2336 17.0023 71.1758 17.0261C71.118 17.0499 71.0547 17.0584 70.9927 17.0506H64.4561C64.4576 17.5999 64.5426 18.1458 64.708 18.6696C64.8429 19.0915 65.0605 19.4822 65.3486 19.8186C65.6132 20.1214 65.9458 20.3575 66.3189 20.5076C66.7201 20.6645 67.1478 20.7419 67.5786 20.7356C67.9578 20.7434 68.3359 20.6928 68.6997 20.5856C68.9778 20.4997 69.2485 20.391 69.5088 20.2606C69.7037 20.1624 69.8932 20.0539 70.0767 19.9356C70.1904 19.8494 70.3265 19.7973 70.4688 19.7856C70.5334 19.7828 70.5979 19.7965 70.6558 19.8254C70.7137 19.8543 70.7631 19.8973 70.7998 19.9506L71.2837 20.5806C71.0652 20.844 70.8071 21.0714 70.5181 21.2546C70.2187 21.4465 69.8986 21.6041 69.564 21.7246C69.2219 21.8479 68.8693 21.9403 68.5107 22.0006C68.1553 22.0615 67.7957 22.0923 67.4351 22.0926C66.7934 22.0994 66.1561 21.9826 65.5586 21.7486C64.996 21.5255 64.4895 21.1813 64.0747 20.7406C63.6397 20.266 63.3079 19.7062 63.1006 19.0966C62.8566 18.3721 62.7389 17.6111 62.752 16.8466C62.7465 16.1933 62.8529 15.5439 63.0669 14.9266C63.2627 14.3555 63.5709 13.8294 63.9736 13.3796C64.3756 12.9373 64.8684 12.5867 65.418 12.3516C66.0258 12.0935 66.6806 11.9651 67.3408 11.9746ZM67.3799 13.2456C67.02 13.2257 66.6597 13.2794 66.3213 13.4036C65.9829 13.5277 65.6732 13.7197 65.4116 13.9676C64.9015 14.5175 64.5879 15.2207 64.519 15.9676H69.8628C69.8668 15.5945 69.811 15.2231 69.6978 14.8676C69.5961 14.5501 69.4312 14.2565 69.2129 14.0046C68.9978 13.7613 68.7307 13.5693 68.4316 13.4426C68.0982 13.3056 67.7403 13.2386 67.3799 13.2456Z" fill="#8989A2"/>
<path d="M80.8276 21.9527H80.0605C79.921 21.9584 79.7823 21.9317 79.6548 21.8747C79.5978 21.8393 79.5499 21.791 79.5151 21.7336C79.4804 21.6763 79.4596 21.6116 79.4546 21.5447L79.2617 20.6327C79.003 20.8654 78.7509 21.074 78.5049 21.2587C78.2631 21.4403 78.0026 21.5962 77.7285 21.7237C77.4514 21.8519 77.1608 21.9479 76.8618 22.0097C76.5251 22.0782 76.1824 22.1117 75.8388 22.1097C75.4756 22.1121 75.114 22.0578 74.7675 21.9487C74.4483 21.8491 74.1532 21.685 73.8999 21.4667C73.6466 21.2427 73.4457 20.9654 73.3125 20.6547C73.1592 20.2866 73.0851 19.8904 73.0947 19.4917C73.0966 19.0948 73.2071 18.7061 73.4145 18.3677C73.6715 17.9656 74.0269 17.6355 74.4467 17.4087C75.0317 17.0888 75.6606 16.8576 76.3134 16.7227C77.2412 16.5283 78.188 16.4385 79.1357 16.4547V15.6837C79.1797 15.0637 79.0062 14.4478 78.6455 13.9417C78.4649 13.7391 78.2406 13.5806 77.9892 13.4783C77.7379 13.3761 77.4665 13.3327 77.1958 13.3517C76.8351 13.3421 76.4756 13.3962 76.1338 13.5117C75.873 13.6052 75.6226 13.7255 75.3867 13.8707C75.1767 14.004 74.9957 14.1237 74.8437 14.2297C74.714 14.3285 74.5565 14.3845 74.3935 14.3897C74.2844 14.3923 74.1775 14.36 74.0879 14.2977C74.002 14.2386 73.9309 14.1606 73.8799 14.0697L73.5678 13.5167C74.0737 13.0182 74.6694 12.6201 75.3237 12.3437C75.9864 12.0783 76.6949 11.9464 77.4087 11.9557C77.9099 11.9465 78.4078 12.0387 78.8725 12.2267C79.2829 12.3962 79.6508 12.6544 79.9497 12.9827C80.2493 13.3229 80.4738 13.7227 80.6079 14.1557C80.7618 14.6451 80.8371 15.1557 80.8315 15.6687L80.8276 21.9527ZM76.3476 20.8957C76.6283 20.8985 76.9083 20.8676 77.1816 20.8037C77.4287 20.7444 77.6678 20.6565 77.8945 20.5417C78.1214 20.4262 78.3363 20.2882 78.5356 20.1297C78.7487 19.9601 78.9494 19.7753 79.1357 19.5767V17.5497C78.4569 17.5405 77.7788 17.591 77.1089 17.7007C76.6418 17.7752 76.1855 17.9079 75.7514 18.0957C75.4523 18.2193 75.1902 18.4177 74.9897 18.6717C74.8331 18.8868 74.7497 19.1466 74.7524 19.4127C74.7468 19.6434 74.7902 19.8727 74.8789 20.0857C74.955 20.2642 75.0712 20.4226 75.2187 20.5487C75.3646 20.6713 75.5351 20.761 75.7187 20.8117C75.9231 20.8688 76.1344 20.8971 76.3466 20.8957H76.3476Z" fill="#8989A2"/>
<path d="M83.4467 21.9527V12.1297H84.4359C84.5741 12.115 84.7125 12.1532 84.8236 12.2367C84.9091 12.3417 84.9601 12.4706 84.9696 12.6057L85.0858 14.1377C85.374 13.5165 85.8002 12.9693 86.3319 12.5377C86.8292 12.152 87.4434 11.9484 88.0726 11.9607C88.3213 11.9578 88.5696 11.9887 88.8099 12.0527C89.0238 12.1119 89.2289 12.1983 89.4208 12.3097L89.1976 13.5997C89.1855 13.6696 89.1488 13.7327 89.0936 13.7773C89.0384 13.8218 88.9687 13.8447 88.8978 13.8417C88.7552 13.8311 88.6147 13.8001 88.4808 13.7497C88.225 13.6795 87.9598 13.6485 87.6947 13.6577C87.1448 13.6397 86.608 13.8264 86.1879 14.1817C85.735 14.6022 85.3877 15.1237 85.1747 15.7037V21.9587L83.4467 21.9527Z" fill="#8989A2"/>
<path d="M91.3218 21.9527V7.6687H93.0566V13.5457C93.4506 13.0845 93.9248 12.6986 94.4565 12.4067C95.0131 12.1116 95.6357 11.9629 96.2656 11.9747C96.7966 11.9669 97.3227 12.0762 97.8066 12.2947C98.2706 12.5116 98.6741 12.8397 98.981 13.2497C99.3273 13.7213 99.5804 14.2544 99.7275 14.8207C99.9124 15.5248 100.001 16.2508 99.9897 16.9787C99.9957 17.6636 99.8975 18.3453 99.6987 19.0007C99.5237 19.5885 99.2392 20.1378 98.8599 20.6197C98.4983 21.0723 98.0416 21.4396 97.522 21.6957C96.9674 21.9638 96.3576 22.0984 95.7417 22.0887C95.1813 22.1057 94.6262 21.9786 94.1289 21.7197C93.6735 21.4635 93.2779 21.113 92.9688 20.6917L92.8818 21.5837C92.8702 21.691 92.817 21.7895 92.7339 21.8584C92.6508 21.9273 92.5446 21.9611 92.437 21.9527H91.3218ZM95.7046 13.3527C95.185 13.3414 94.6727 13.4758 94.2256 13.7407C93.7703 14.0303 93.374 14.4036 93.0576 14.8407V19.5927C93.3188 19.9762 93.6744 20.2861 94.0898 20.4927C94.4877 20.6714 94.9199 20.7608 95.356 20.7547C95.7615 20.7766 96.1661 20.6988 96.5347 20.5282C96.9032 20.3575 97.2241 20.0992 97.4697 19.7757C98.0106 18.9487 98.2689 17.9689 98.2065 16.9827C98.2158 16.4282 98.1588 15.8746 98.0366 15.3337C97.9475 14.929 97.7814 14.5453 97.5469 14.2037C97.3486 13.9214 97.0771 13.6985 96.7617 13.5587C96.4264 13.4163 96.0649 13.3458 95.7007 13.3517L95.7046 13.3527Z" fill="#8989A2"/>
<path d="M104.412 9.05071C104.414 9.21286 104.38 9.37341 104.312 9.52071C104.245 9.66471 104.153 9.79598 104.041 9.90871C103.928 10.0219 103.795 10.1125 103.648 10.1757C103.498 10.2418 103.336 10.2758 103.172 10.2757C103.01 10.2764 102.85 10.2423 102.702 10.1757C102.557 10.1119 102.425 10.0213 102.314 9.90871C102.201 9.7972 102.11 9.66561 102.046 9.52071C101.98 9.37285 101.945 9.21268 101.946 9.05071C101.946 8.88559 101.98 8.72228 102.046 8.57072C102.108 8.42123 102.199 8.28536 102.314 8.17072C102.425 8.05827 102.557 7.96771 102.702 7.90372C102.85 7.83726 103.01 7.80316 103.172 7.80372C103.336 7.80372 103.498 7.83778 103.648 7.90372C103.795 7.96712 103.928 8.05772 104.041 8.17072C104.155 8.28656 104.247 8.42209 104.312 8.57072C104.379 8.72173 104.413 8.88541 104.412 9.05071ZM104.025 12.1347V21.9577H102.297V12.1347H104.025Z" fill="#8989A2"/>
<path d="M110.046 22.1077C109.719 22.1291 109.391 22.0824 109.083 21.9705C108.775 21.8586 108.494 21.684 108.257 21.4577C107.809 20.9407 107.584 20.2678 107.631 19.5857V13.5737H106.448C106.352 13.5766 106.258 13.5438 106.185 13.4817C106.148 13.4447 106.119 13.3999 106.101 13.3505C106.082 13.3011 106.075 13.2482 106.08 13.1957V12.5077L107.688 12.3077L108.089 9.27268C108.099 9.18025 108.144 9.09518 108.215 9.03468C108.291 8.97164 108.387 8.93888 108.486 8.94268H109.36V12.3277H112.173V13.5787H109.361V19.4787C109.347 19.6444 109.367 19.8112 109.418 19.9693C109.47 20.1274 109.552 20.2737 109.661 20.3997C109.763 20.5 109.884 20.5783 110.018 20.6299C110.151 20.6815 110.293 20.7052 110.436 20.6997C110.596 20.7031 110.755 20.6783 110.906 20.6267C111.025 20.5844 111.14 20.5309 111.249 20.4667C111.347 20.408 111.429 20.3547 111.497 20.3067C111.548 20.2647 111.611 20.2392 111.677 20.2337C111.728 20.238 111.777 20.2555 111.82 20.2844C111.862 20.3133 111.896 20.3526 111.919 20.3987L112.419 21.2227C112.108 21.51 111.742 21.7326 111.344 21.8777C110.928 22.0323 110.489 22.1102 110.046 22.1077Z" fill="#8989A2"/>
</svg>
